<svg width="172" height="26" viewBox="0 0 172 26" fill="none" xmlns="http://www.w3.org/2000/svg">
<path d="M129.691 20H123.211V8.8H129.531V10.08H124.571V13.696H129.051V14.976H124.571V18.72H129.691V20ZM133.166 20H131.886V12.8H133.166V13.68C133.433 13.3813 133.78 13.1413 134.206 12.96C134.644 12.768 135.081 12.672 135.518 12.672C137.513 12.672 138.51 13.728 138.51 15.84V20H137.23V16.08C137.23 14.608 136.553 13.872 135.198 13.872C134.388 13.872 133.71 14.1813 133.166 14.8V20ZM139.676 21.04C139.676 20.4853 139.878 20.0213 140.284 19.648C140.689 19.2747 141.254 19.008 141.98 18.848C141.862 18.6987 141.804 18.5013 141.804 18.256C141.804 18.0107 141.868 17.808 141.996 17.648C141.484 17.4453 141.084 17.136 140.796 16.72C140.518 16.304 140.38 15.824 140.38 15.28C140.38 14.5333 140.646 13.9093 141.18 13.408C141.724 12.896 142.438 12.64 143.324 12.64C144.006 12.64 144.614 12.816 145.148 13.168L147.26 12.656L147.292 13.696L145.932 14.032C146.156 14.4053 146.268 14.8213 146.268 15.28C146.268 16.016 145.996 16.6347 145.452 17.136C144.918 17.6267 144.209 17.872 143.324 17.872C143.078 17.872 142.918 17.8667 142.844 17.856C142.79 17.984 142.764 18.1173 142.764 18.256C142.764 18.448 142.812 18.608 142.908 18.736C142.929 18.736 142.993 18.736 143.1 18.736C143.217 18.7253 143.297 18.72 143.34 18.72C144.46 18.72 145.35 18.9227 146.012 19.328C146.673 19.7227 147.004 20.2933 147.004 21.04C147.004 21.7653 146.673 22.3253 146.012 22.72C145.35 23.1253 144.46 23.328 143.34 23.328C142.209 23.328 141.313 23.1307 140.652 22.736C140.001 22.352 139.676 21.7867 139.676 21.04ZM145.804 21.04C145.804 20.6453 145.585 20.3307 145.148 20.096C144.71 19.872 144.108 19.76 143.34 19.76C142.572 19.76 141.969 19.872 141.532 20.096C141.094 20.3307 140.876 20.6453 140.876 21.04C140.876 21.4347 141.094 21.7387 141.532 21.952C141.969 22.176 142.572 22.288 143.34 22.288C144.108 22.288 144.71 22.1813 145.148 21.968C145.585 21.7547 145.804 21.4453 145.804 21.04ZM141.58 15.28C141.58 15.728 141.74 16.1013 142.06 16.4C142.39 16.688 142.812 16.832 143.324 16.832C143.836 16.832 144.252 16.688 144.572 16.4C144.902 16.112 145.068 15.7387 145.068 15.28C145.068 14.8213 144.908 14.4427 144.588 14.144C144.257 13.8347 143.836 13.68 143.324 13.68C142.812 13.68 142.39 13.8347 142.06 14.144C141.74 14.4427 141.58 14.8213 141.58 15.28ZM148.574 18.08V8.8H149.854V17.504C149.854 18.4533 150.137 18.928 150.702 18.928C150.979 18.928 151.283 18.8213 151.614 18.608L151.902 19.584C151.443 19.9467 150.878 20.128 150.206 20.128C149.118 20.128 148.574 19.4453 148.574 18.08ZM154.847 20H153.567V12.8H154.847V20ZM153.407 10.096C153.407 9.872 153.487 9.69067 153.647 9.552C153.807 9.40267 154.004 9.328 154.239 9.328C154.463 9.328 154.649 9.40267 154.799 9.552C154.948 9.69067 155.023 9.872 155.023 10.096C155.023 10.3413 154.948 10.544 154.799 10.704C154.649 10.8533 154.463 10.928 154.239 10.928C154.004 10.928 153.807 10.8533 153.647 10.704C153.487 10.544 153.407 10.3413 153.407 10.096ZM161.144 18.048C161.144 17.792 161.01 17.5787 160.744 17.408C160.477 17.2373 160.152 17.0987 159.768 16.992C159.394 16.8747 159.016 16.7413 158.632 16.592C158.248 16.4427 157.922 16.208 157.656 15.888C157.389 15.5573 157.256 15.152 157.256 14.672C157.256 14.064 157.48 13.5733 157.928 13.2C158.376 12.8267 158.968 12.64 159.704 12.64C160.76 12.64 161.586 12.9227 162.184 13.488L161.576 14.464C161.042 13.9947 160.44 13.76 159.768 13.76C159.426 13.76 159.149 13.8453 158.936 14.016C158.722 14.1867 158.616 14.4 158.616 14.656C158.616 14.9333 158.749 15.1627 159.016 15.344C159.282 15.5147 159.602 15.6587 159.976 15.776C160.36 15.8827 160.744 16.0107 161.128 16.16C161.512 16.2987 161.837 16.5227 162.104 16.832C162.37 17.1413 162.504 17.5253 162.504 17.984C162.504 18.6987 162.237 19.2427 161.704 19.616C161.181 19.9787 160.52 20.16 159.72 20.16C159.154 20.16 158.616 20.0427 158.104 19.808C157.581 19.5627 157.234 19.3067 157.064 19.04L157.784 18.128C157.997 18.3733 158.306 18.5867 158.712 18.768C159.138 18.9493 159.522 19.04 159.864 19.04C160.237 19.04 160.541 18.9547 160.776 18.784C161.021 18.6027 161.144 18.3573 161.144 18.048ZM165.651 20H164.371V8.8H165.651V13.632C166.291 12.992 167.075 12.672 168.003 12.672C169.997 12.672 170.995 13.7387 170.995 15.872V20H169.715V16.048C169.715 14.5973 169.043 13.872 167.699 13.872C167.325 13.872 166.947 13.9573 166.563 14.128C166.189 14.2987 165.885 14.5173 165.651 14.784V20Z" fill="white"/>
<path d="M107.479 15.6547C109.046 14.0893 110 12.0314 110 9.77878C110 7.43507 108.967 5.30259 107.286 3.71576V3.71545C107.284 3.71362 107.282 3.71301 107.281 3.71148C105.53 2.06107 103.076 1.00461 100.347 0.921766L100.346 0.921461L100.151 0.916875C100.101 0.915347 100.051 0.913818 100 0.913818C99.9493 0.913818 99.899 0.915347 99.8486 0.916875L99.6545 0.921461L99.6541 0.921766C96.9248 1.00461 94.471 2.06107 92.7197 3.71148C92.7183 3.71301 92.7162 3.71362 92.7152 3.71545C92.7152 3.71545 92.7152 3.71576 92.7148 3.71606C91.0331 5.30259 90 7.43507 90 9.77878C90 12.0314 90.9545 14.0893 92.5214 15.6547C92.5234 15.6575 92.5234 15.6605 92.5259 15.6633C92.5321 15.6709 92.541 15.6746 92.5476 15.6816C94.3083 17.4265 96.8345 18.5505 99.6538 18.6361L99.6541 18.6364L99.8483 18.641C99.899 18.6422 99.9493 18.6437 100 18.6437C100.051 18.6437 100.101 18.6422 100.151 18.6407L100.346 18.6361L100.346 18.6358C103.168 18.5499 105.697 17.4237 107.458 15.6752C107.462 15.67 107.47 15.6685 107.474 15.663C107.477 15.6605 107.477 15.6575 107.479 15.6547ZM90.6983 10.0845H94.8372C94.8762 11.3803 95.1617 12.6394 95.67 13.8191C94.6893 14.1336 93.7517 14.5555 92.8731 15.0819C91.581 13.7194 90.7769 11.9828 90.6983 10.0845ZM93.0614 4.28342C93.9193 4.77803 94.8328 5.1742 95.7855 5.4701C95.2021 6.72557 94.8793 8.07916 94.8372 9.4731H90.6983C90.7807 7.48398 91.6593 5.67278 93.0614 4.28342ZM109.302 9.4731H105.163C105.121 8.07916 104.798 6.72557 104.214 5.4701C105.167 5.1742 106.081 4.77803 106.939 4.28342C108.341 5.67278 109.219 7.48398 109.302 9.4731ZM99.6552 5.48783C98.6583 5.46277 97.6797 5.33102 96.7341 5.09564C97.4331 3.82458 98.42 2.67734 99.6552 1.72206V5.48783ZM99.6552 6.09921V9.4731H95.5269C95.5693 8.14396 95.8838 6.85487 96.4462 5.65963C97.4828 5.92589 98.559 6.07323 99.6552 6.09921ZM100.345 6.09921C101.441 6.07323 102.517 5.92619 103.554 5.65963C104.117 6.85487 104.431 8.14396 104.473 9.4731H100.345V6.09921ZM100.345 5.48783V1.72206C101.58 2.67734 102.567 3.82458 103.266 5.09564C102.32 5.33102 101.342 5.46277 100.345 5.48783ZM103.934 4.90978C103.272 3.67938 102.352 2.55842 101.214 1.59764C103.233 1.8318 105.05 2.64126 106.45 3.83467C105.655 4.28159 104.812 4.64108 103.934 4.90978ZM96.0659 4.90978C95.1876 4.64108 94.3448 4.28159 93.5507 3.83467C94.9497 2.64126 96.7669 1.8318 98.7862 1.59764C97.6476 2.55842 96.7283 3.67938 96.0659 4.90978ZM95.5269 10.0845H99.6552V13.153C98.5148 13.1799 97.3976 13.3376 96.3238 13.624C95.8386 12.5067 95.5659 11.313 95.5269 10.0845ZM99.6552 13.7643V17.8355C98.3331 16.813 97.2966 15.5707 96.5917 14.1926C97.5803 13.9343 98.6072 13.7906 99.6552 13.7643ZM100.345 17.8355V13.7643C101.393 13.7903 102.42 13.9343 103.408 14.1923C102.703 15.5707 101.667 16.813 100.345 17.8355ZM100.345 13.153V10.0845H104.473C104.434 11.313 104.161 12.5067 103.676 13.6243C102.602 13.3376 101.485 13.1799 100.345 13.153ZM105.163 10.0845H109.302C109.223 11.9828 108.419 13.7194 107.127 15.0819C106.248 14.5555 105.311 14.1336 104.33 13.8191C104.839 12.6394 105.124 11.3803 105.163 10.0845ZM93.3417 15.5398C94.1576 15.0592 95.0262 14.6729 95.9338 14.384C96.6045 15.7168 97.5672 16.9313 98.7859 17.9599C96.6648 17.7138 94.7666 16.8335 93.3417 15.5398ZM101.214 17.9599C102.433 16.9316 103.396 15.7171 104.066 14.384C104.974 14.6729 105.842 15.0592 106.658 15.5398C105.233 16.8335 103.335 17.7138 101.214 17.9599Z" fill="white"/>
<path d="M19.8779 17.4909L14.0681 12.3405C15.17 11.1345 15.8334 9.60126 15.8334 7.93194C15.8334 4.06217 12.2819 0.913818 7.91666 0.913818C3.55142 0.913818 0 4.06217 0 7.93194C0 11.8017 3.55146 14.9501 7.9167 14.9501C9.79975 14.9501 11.5293 14.362 12.8897 13.3851L18.6996 18.5356C18.8624 18.6798 19.1261 18.6798 19.2889 18.5356L19.878 18.0133C20.0407 17.869 20.0407 17.6351 19.8779 17.4909ZM7.9167 13.4726C4.47025 13.4726 1.66668 10.9872 1.66668 7.93194C1.66668 4.87667 4.47025 2.39133 7.9167 2.39133C11.3632 2.39133 14.1667 4.87667 14.1667 7.93194C14.1667 10.9872 11.3632 13.4726 7.9167 13.4726Z" fill="white"/>
</svg>
